<svg xmlns="http://www.w3.org/2000/svg" viewBox="0 0 62.28 79.18"><defs><style>.cls-1{fill:#fff;}</style></defs><title>Asset 2@2000x-blacklogo-100</title><g id="Layer_2" data-name="Layer 2"><g id="Layer_2-2" data-name="Layer 2"><path class="cls-1" d="M10.82,50.91c5.68,0,10.28,8.23,10.28,18.4C15.42,69.31,10.82,61.08,10.82,50.91Z"/><path class="cls-1" d="M44.9,57.2c-4.33-3.69-13.16-.4-19.76,7.35C29.47,68.23,38.31,64.94,44.9,57.2Z"/><path class="cls-1" d="M0,79.18v-2c15.94,0,28.37-14.87,28.37-31.44l2.55,1.38C30.92,64.8,17.05,79.18,0,79.18Z"/><path class="cls-1" d="M32.06,47.12A27.19,27.19,0,0,0,43.58,46c5.73-1.64,10.77-5.66,10.26-6.83-.73-1.66-10.78,4-21.6.27-9.87-3.36-16-12.75-18-11.72-1.55.84,1.38,9.08,6,13.71A21.14,21.14,0,0,0,32.06,47.12Z"/><path class="cls-1" d="M21.35,27.64c2.19-.67-1.07-8.77,2.12-14.43,5-8.78,22.17-6,22.36-8.78C46,2.48,37.73-.82,29.56.19,27.15.48,18.32,1.56,15,8.39a14.66,14.66,0,0,0-1,8.92,15.82,15.82,0,0,0,4,7.92C19.36,26.74,20.46,27.91,21.35,27.64Z"/><path class="cls-1" d="M43.74,8.52c-1.17,1.83,5.49,5.43,6.2,10.75.67,5-3,8.57-2.27,9.06s5.87-3.57,7.5-9.63c.48-1.77,1.68-6.24-.85-8.77-2.11-2.11-5.71-1.75-6.22-1.7C46.66,8.37,44.14,7.9,43.74,8.52Z"/><path class="cls-1" d="M61.8,17.16c1.25.47-.34,7.85-.26,13A5.72,5.72,0,0,1,59,35.28c-3.24,2.37-9.76,2.45-10.33.71-.29-.89,1.09-1.89,2.83-3.54C59.13,25.23,60.45,16.66,61.8,17.16Z"/><path class="cls-1" d="M26.87,17.17c1.53.21-.09,6.22,3.25,9.2,3.87,3.43,11.4.16,12.74,3.11A2.92,2.92,0,0,1,43,31c-.29,2.92-3.63,4.58-4.1,4.81C34.35,38,29.23,34.73,29,34.58A12.42,12.42,0,0,1,23.9,22.12C24.38,19.72,25.82,17,26.87,17.17Z"/><path class="cls-1" d="M39,10.58A7.33,7.33,0,0,0,34.65,14,6.58,6.58,0,0,0,34,18.88a4.92,4.92,0,0,0,1.15,2,4.56,4.56,0,0,0,4.07,1.31,3.12,3.12,0,0,0,1.71-1,3.18,3.18,0,0,0,.84-1.78,2.53,2.53,0,0,0-.35-1.8,2.32,2.32,0,0,0-1.49-1,2,2,0,0,0-1.7.35,1.93,1.93,0,0,0-.69,1.65,1.51,1.51,0,0,0,1.18,1.31A1.36,1.36,0,0,0,40.38,19a1.33,1.33,0,0,0-.12-1.16,1.46,1.46,0,0,0-1.16-.65,1.6,1.6,0,0,1,1.5.35,2,2,0,0,1,.6,1.6,2.37,2.37,0,0,1-.84,1.62,2.66,2.66,0,0,1-1.81.6A3.22,3.22,0,0,1,35.6,19a4.08,4.08,0,0,1,2.69-4.86,4.73,4.73,0,0,1,2-.17,5.07,5.07,0,0,1,3.41,2,5.79,5.79,0,0,1-.61,7.28,6,6,0,0,1-3.38,1.8,6.94,6.94,0,0,1-8-5.69,7.86,7.86,0,0,1,1.78-6.27A7.06,7.06,0,0,1,39,10.58Z"/></g></g></svg>