<svg xmlns="http://www.w3.org/2000/svg" xmlns:xlink="http://www.w3.org/1999/xlink" id="Capa_1" x="0" y="0" version="1.1" viewBox="0 0 800 800" style="enable-background:new 0 0 800 800" xml:space="preserve"><style type="text/css">.st0{fill:#5e5e5e}</style><g><path d="M568.3,0H231.7c-32.2,0-58.2,26.1-58.2,58.3v683.5c0,32.1,26,58.2,58.2,58.2h336.6c32.2,0,58.2-26.1,58.2-58.2 V58.3C626.5,26.1,600.5,0,568.3,0z M316.9,35.4h166.2c4.2,0,7.6,6.3,7.6,14s-3.4,14.1-7.6,14.1H316.9c-4.2,0-7.6-6.3-7.6-14.1 C309.4,41.7,312.7,35.4,316.9,35.4z M400,742.5c-20.5,0-37.2-16.7-37.2-37.2s16.7-37.1,37.2-37.1c20.4,0,37.1,16.6,37.1,37.1 S420.5,742.5,400,742.5z M582.9,615.1H217.1V98.3h365.8L582.9,615.1L582.9,615.1z" class="st0"/></g></svg>