<?xml version="1.0" encoding="utf-8"?>
<!-- Generator: Adobe Illustrator 25.2.0, SVG Export Plug-In . SVG Version: 6.00 Build 0)  -->
<svg version="1.1" id="Layer_1" xmlns="http://www.w3.org/2000/svg" xmlns:xlink="http://www.w3.org/1999/xlink" x="0px" y="0px"
	 viewBox="0 0 595.3 841.9" style="enable-background:new 0 0 595.3 841.9;" xml:space="preserve">
<style type="text/css">
	.st0{display:none;fill:#FFFFFF;}
	.st1{fill:#5E5E5E;}
</style>
<g>
	<path class="st0" d="M399.8,404.6c0,39.7,0,79.4,0,119.1c-68.3,0-136.5,0-204.8,0c0-68.3,0-136.5,0-204.8c5.8,0,11.6,0,17.5,0
		c-10.2,3.4-15.4,9.9-15.3,21.1c0.3,48.1,0.1,96.3,0.1,144.5c0,8.7,2.5,16,11.2,19c17,6,34,11.8,51.2,17
		c11.3,3.4,20.7-3.8,21.6-15.5c0.2-2.8,0.3-5.6,0.5-9c8.5,0,16.2,0.1,23.8,0c15.8-0.2,25.7-9.9,26.2-25.7c0.3-9.8,0.1-19.6,0.1-29.4
		c0-6-1-11.6-8.7-11.4c-7.2,0.2-8.1,5.5-8.1,11.2c0,9.5,0,19-0.1,28.6c0,4.9-1.7,9.4-7.2,9.8c-8.6,0.5-17.2,0.1-26.5,0.1
		c0-4.2,0-7.4,0-10.5c0-32.8,0.1-65.6-0.1-98.4c-0.1-11.7,3.4-24.4-10.3-33.9c12.7,0,23,0,33.3,0c7.1,0,10.8,3.4,10.8,10.6
		c0,6.6,0,13.2,0,19.8c0,5.8,1.2,11.2,8.2,11.3c7.5,0.1,8.6-5.6,8.6-11.6c0-4.8,0-9.5,0-14.3c0-21-4.3-26.9-24.2-33.3
		c30.7,0,61.4,0,92.1,0c0,28,0,56.1,0,84.1c-11.3-12.1-22.5-24.4-34.2-36c-2.7-2.7-8.5-5.1-11.3-4c-2.9,1.2-5,6.8-5.5,10.7
		c-0.9,6.9-0.2,14-0.2,21.5c-8,0-14.6,0.2-21.2,0c-17.5-0.5-19.9,0.7-20,8.7c-0.1,5.5,0.6,9.1,19.7,8.3c6.8-0.3,13.6,0,21.6,0
		c0,8.4-0.5,16,0.2,23.6c0.3,3.2,2.6,7,5.2,8.8c1.8,1.2,6.8,0.5,8.5-1.2C375.2,430.7,387.4,417.6,399.8,404.6z"/>
	<path class="st1" d="M307.7,318.9c19.9,6.4,24.2,12.3,24.2,33.3c0,4.8,0,9.5,0,14.3c0,6-1.1,11.7-8.6,11.6
		c-6.9-0.1-8.2-5.5-8.2-11.3c0-6.6-0.1-13.2,0-19.8c0-7.3-3.7-10.7-10.8-10.6c-10.3,0-20.6,0-33.3,0c13.6,9.5,10.2,22.2,10.3,33.9
		c0.2,32.8,0.1,65.6,0.1,98.4c0,3.1,0,6.2,0,10.5c9.4,0,18,0.4,26.5-0.1c5.5-0.3,7.1-4.8,7.2-9.8c0.1-9.5,0.1-19,0.1-28.6
		c0-5.7,0.9-11.1,8.1-11.2c7.7-0.2,8.7,5.4,8.7,11.4c0,9.8,0.2,19.6-0.1,29.4c-0.5,15.9-10.5,25.5-26.2,25.7c-7.6,0.1-15.3,0-23.8,0
		c-0.2,3.4-0.3,6.2-0.5,9c-0.9,11.7-10.3,18.9-21.6,15.5c-17.2-5.2-34.2-11-51.2-17c-8.7-3.1-11.3-10.4-11.2-19
		c0.1-48.2,0.2-96.3-0.1-144.5c-0.1-11.3,5.2-17.8,15.3-21.1C244.2,318.9,276,318.9,307.7,318.9z"/>
	<path class="st1" d="M399.8,404.6c-12.4,13-24.6,26.1-37.3,38.7c-1.7,1.7-6.7,2.4-8.5,1.2c-2.6-1.8-4.9-5.6-5.2-8.8
		c-0.7-7.5-0.2-15.2-0.2-23.6c-7.9,0-14.8-0.2-21.6,0c-19.1,0.8-19.8-2.8-19.7-8.3c0.1-8,2.6-9.2,20-8.7c6.6,0.2,13.2,0,21.2,0
		c0-7.5-0.6-14.6,0.2-21.5c0.5-3.9,2.6-9.6,5.5-10.7c2.8-1.2,8.6,1.3,11.3,4c11.8,11.6,22.9,23.9,34.2,36
		C399.8,403.6,399.8,404.1,399.8,404.6z"/>
</g>
</svg>
