<svg class="svg-icon" style="width: 1em; height: 1em;vertical-align: middle;fill: currentColor;overflow: hidden;" viewBox="0 0 1024 1024" version="1.1" xmlns="http://www.w3.org/2000/svg"><path d="M78.22291438 968.30107625c0 14.21935406 9.47956969 23.69892375 23.69892374 23.69892375s23.69892375-9.47956969 23.69892375-23.69892375c0-213.33036656 173.03552063-386.36588719 386.36588625-386.36588625s386.37923813 173.03552063 386.37923907 386.36588625c0 14.21935406 9.47956969 23.69892375 23.69892281 23.69892375s23.69892375-9.47956969 23.69892375-23.69892375c0-196.74779531-132.74067469-362.66696344-310.51597969-417.19451437 90.06926062-45.03463031 151.713165-137.52051375 151.713165-244.14564282C786.96091906 155.261105 663.69981406 32 511.98664813 32S237.03908094 155.261105 237.03908094 306.96091906c0 106.66518281 61.6305525 199.1110125 151.69981406 244.14564281C208.60037281 603.25754469 78.22291438 769.17671281 78.22291438 968.30107625z m206.22736499-663.75678c0-125.62432219 101.92539844-227.56307156 227.54972063-227.56307156s227.56307156 101.99215594 227.56307156 227.56307156S637.651025 532.1474225 512 532.1474225s-227.54972063-101.92539844-227.54972063-227.60312625z m0 0" fill="" /></svg>