<?xml version="1.0" encoding="UTF-8" standalone="no"?>
<svg
   xmlns:dc="http://purl.org/dc/elements/1.1/"
   xmlns:cc="http://creativecommons.org/ns#"
   xmlns:rdf="http://www.w3.org/1999/02/22-rdf-syntax-ns#"
   xmlns:svg="http://www.w3.org/2000/svg"
   xmlns="http://www.w3.org/2000/svg"
   xmlns:sodipodi="http://sodipodi.sourceforge.net/DTD/sodipodi-0.dtd"
   xmlns:inkscape="http://www.inkscape.org/namespaces/inkscape"
   version="1.1"
   width="512"
   height="512"
   x="0"
   y="0"
   viewBox="0 0 512 512"
   style="enable-background:new 0 0 512 512"
   xml:space="preserve"
   class=""
   id="svg125"
   sodipodi:docname="reset.svg"
   inkscape:version="0.92.3 (2405546, 2018-03-11)"><metadata
     id="metadata131"><rdf:RDF><cc:Work
         rdf:about=""><dc:format>image/svg+xml</dc:format><dc:type
           rdf:resource="http://purl.org/dc/dcmitype/StillImage" /></cc:Work></rdf:RDF></metadata><defs
     id="defs129" /><sodipodi:namedview
     pagecolor="#ffffff"
     bordercolor="#666666"
     borderopacity="1"
     objecttolerance="10"
     gridtolerance="10"
     guidetolerance="10"
     inkscape:pageopacity="0"
     inkscape:pageshadow="2"
     inkscape:window-width="1920"
     inkscape:window-height="1016"
     id="namedview127"
     showgrid="false"
     inkscape:zoom="1.6171875"
     inkscape:cx="250.74396"
     inkscape:cy="250.35017"
     inkscape:window-x="0"
     inkscape:window-y="27"
     inkscape:window-maximized="1"
     inkscape:current-layer="layer2" /><g
     inkscape:groupmode="layer"
     id="layer3"
     inkscape:label="Layer 2"><rect
       style="opacity:1;fill:#969696;fill-opacity:1;stroke:none;stroke-opacity:1"
       id="rect255"
       width="513.23669"
       height="513.8551"
       x="-0.61835748"
       y="0.61835748" /></g><g
     inkscape:groupmode="layer"
     id="layer2"
     inkscape:label="Layer 1"><g
       id="g123"
       transform="matrix(0.70289856,0,0,0.70289856,76.589145,75.526568)"><g
         id="g85"><g
           id="g83"><path
             d="M 463.702,162.655 442.491,14.164 C 440.747,1.99 425.784,-3.069 417.032,5.683 L 386.138,36.577 C 346.411,12.612 301.309,0 254.932,0 115.464,0 3.491,109.16 0.005,248.511 c -0.19,7.617 5.347,14.15 12.876,15.234 l 59.941,8.569 c 8.936,1.304 17.249,-5.712 17.125,-15.058 C 88.704,165.286 162.986,90 254.932,90 c 22.265,0 44.267,4.526 64.6,13.183 l -29.78,29.78 c -8.697,8.697 -3.761,23.706 8.481,25.459 l 148.491,21.211 c 9.784,1.475 18.381,-7.034 16.978,-16.978 z"
             data-original="#000000"
             style="fill:#ffffff"
             class=""
             id="path81"
             inkscape:connector-curvature="0" /></g></g><g
         id="g91"><g
           id="g89"><path
             d="m 499.117,249.412 -59.897,-8.555 c -7.738,-0.98 -17.124,5.651 -17.124,16.143 0,90.981 -74.019,165 -165,165 -22.148,0 -44.048,-4.482 -64.306,-13.052 l 28.828,-28.828 c 8.697,-8.697 3.761,-23.706 -8.481,-25.459 L 64.646,333.435 c -9.753,-1.393 -18.39,6.971 -16.978,16.978 l 21.21,148.492 c 1.746,12.187 16.696,17.212 25.459,8.481 l 31.641,-31.626 c 39.536,23.745 84.609,36.24 131.118,36.24 138.794,0 250.752,-108.618 254.897,-247.28 0.22,-7.632 -5.317,-14.224 -12.876,-15.308 z"
             data-original="#000000"
             style="fill:#ffffff"
             class=""
             id="path87"
             inkscape:connector-curvature="0" /></g></g><g
         id="g93" /><g
         id="g95" /><g
         id="g97" /><g
         id="g99" /><g
         id="g101" /><g
         id="g103" /><g
         id="g105" /><g
         id="g107" /><g
         id="g109" /><g
         id="g111" /><g
         id="g113" /><g
         id="g115" /><g
         id="g117" /><g
         id="g119" /><g
         id="g121" /></g></g></svg>