<svg xmlns="http://www.w3.org/2000/svg" xmlns:xlink="http://www.w3.org/1999/xlink" id="Layer_1" x="0" y="0" version="1.1" viewBox="0 0 595.3 841.9" style="enable-background:new 0 0 595.3 841.9" xml:space="preserve"><style type="text/css">.st0{fill:#fff}.st1{fill:#5e5e5e}</style><g><path d="M250,413.8c0-13.6,0-27.3,0-40.9c32,0,64,0,96,0c0,32,0,64,0,96c-32,0-64,0-96,0c0-14.6,0-29.3,0-43.9 c2.2,1.4,4.3,3.2,6.7,4c3.1,1,4.6,4.2,2.6,6.9c-2.6,3.6-2.5,6.4,0.5,9.6c1,1.1,2.1,2.1,3.1,3.2c3.9,3.8,6.2,4,10.7,0.7 c1.9-1.4,5.7-0.1,6.2,2.1c1.9,7.2,4.2,8.6,12,7.1c-1.9-6.5,1.9-10.7,6.2-14.6c2.9-2.7,5.4-5.8,8.5-8.3c5-4.1,8.1-9.2,8.9-15.7 c0.4-3.6,2.7-5.7,6.2-6.5c1.9-0.5,3.8-1.1,5.7-1.7c-1.3-1.4-2.5-2-3.8-2.3c-4.1-0.8-5.5-3.8-3.1-7.1c2.3-3.2,2.2-6.1-0.5-9.1 c-1.3-1.5-2.7-2.9-4.2-4.2c-3.1-2.8-6-2.9-9.4-0.5c-2.9,2.1-6.2,0.8-6.8-2.7c-0.7-4.3-2.9-6.3-7.3-6.4c-1.9,0-3.7-0.1-5.6,0 c-3.9,0.1-6.2,2.2-6.9,5.9c-0.7,4.1-3.8,5.4-7.1,3c-3-2.2-6-2.1-8.8,0.3c-1.1,1-2.1,2.1-3.2,3.1c-4.3,4.3-4.5,6.3-1.1,11.2 c1.4,2.1-0.2,6.1-2.6,6.1C253.7,409.3,251.7,411.3,250,413.8z M304.9,463.1c1.1-0.6,3.3-1.5,4.9-3c4.1-3.8,8.2-7.6,11.8-11.8 c4.3-4.9,9.3-8.3,15.9-9.1c1.5-0.2,3.6-1,4.1-2.1c1.5-4,2.5-8.2,3.5-12.4c0.2-0.8-0.8-2.1-1.6-2.6c-0.4-0.3-1.7,0.6-2.4,1.2 c-1.3,1.1-2.4,2.5-3.8,3.6c-1.8,1.5-4,1.6-5.2-0.4c-0.8-1.3-0.7-3.5-0.1-5s2.4-2.5,3.5-3.8c0.6-0.7,0.9-1.6,1.3-2.4 c-1-0.5-2.1-1.5-3.1-1.4c-2.4,0.2-4.8,1.2-7.2,1.5c-4.6,0.6-7,3-7.5,7.7c-0.5,5.1-3.1,9.1-7,12.6c-4.9,4.4-9.4,9.2-14,13.9 c-2.4,2.5-3,5.4-1.7,8.6C297.8,461,300.2,462.9,304.9,463.1z" class="st0"/><path d="M250,413.8c1.7-2.5,3.7-4.5,7.1-4.5c2.4,0,4-4.1,2.6-6.1c-3.3-5-3.1-6.9,1.1-11.2c1-1.1,2.1-2.2,3.2-3.1 c2.8-2.4,5.8-2.5,8.8-0.3c3.3,2.4,6.4,1.1,7.1-3c0.7-3.8,3-5.8,6.9-5.9c1.9-0.1,3.7-0.1,5.6,0c4.4,0.1,6.6,2,7.3,6.4 c0.6,3.5,3.9,4.9,6.8,2.7c3.3-2.5,6.3-2.3,9.4,0.5c1.5,1.3,2.9,2.7,4.2,4.2c2.7,3,2.8,5.9,0.5,9.1c-2.4,3.3-1,6.3,3.1,7.1 c1.3,0.2,2.5,0.9,3.8,2.3c-1.9,0.6-3.8,1.2-5.7,1.7c-3.5,0.9-5.8,2.9-6.2,6.5c-0.8,6.5-3.8,11.5-8.9,15.7c-3,2.5-5.6,5.7-8.5,8.3 c-4.4,4-8.2,8.1-6.2,14.6c-7.9,1.5-10.2,0-12-7.1c-0.6-2.2-4.3-3.4-6.2-2.1c-4.5,3.2-6.8,3.1-10.7-0.7c-1.1-1-2.1-2.1-3.1-3.2 c-3-3.2-3.1-6.1-0.5-9.6c2-2.7,0.5-5.8-2.6-6.9c-2.4-0.8-4.4-2.6-6.7-4C250,421.3,250,417.5,250,413.8z M272.2,419.2 c0,9.9,7.8,17.7,17.6,17.7c9.8,0,17.6-7.9,17.6-17.8c0-9.7-7.7-17.4-17.4-17.5C280.1,401.5,272.2,409.3,272.2,419.2z" class="st1"/><path d="M304.9,463.1c-4.7-0.2-7.2-2.1-8.5-5.1c-1.3-3.1-0.7-6.1,1.7-8.6c4.6-4.7,9.1-9.5,14-13.9 c3.9-3.5,6.5-7.4,7-12.6c0.5-4.7,2.9-7,7.5-7.7c2.4-0.3,4.8-1.3,7.2-1.5c1-0.1,2.1,0.9,3.1,1.4c-0.4,0.8-0.7,1.8-1.3,2.4 c-1.1,1.3-2.9,2.3-3.5,3.8c-0.6,1.4-0.7,3.7,0.1,5c1.2,1.9,3.4,1.9,5.2,0.4c1.3-1.1,2.4-2.5,3.8-3.6c0.7-0.6,2-1.4,2.4-1.2 c0.8,0.6,1.7,1.9,1.6,2.6c-0.9,4.2-2,8.4-3.5,12.4c-0.4,1.1-2.6,1.9-4.1,2.1c-6.6,0.8-11.6,4.2-15.9,9.1 c-3.7,4.2-7.7,8.1-11.8,11.8C308.2,461.6,306,462.5,304.9,463.1z M319.4,438.3c-0.9,0.3-1.2,0.3-1.4,0.5c-3.2,3.2-6.5,6.4-9.7,9.7 c-0.3,0.3,0,1.5,0.4,1.9c0.4,0.3,1.6,0.4,1.9,0c3.1-3,6.2-6,9.2-9.2C320.2,440.7,319.5,439.3,319.4,438.3z M305.2,456.5 c1-1.4,2.1-2.2,2.1-2.9c-0.1-0.8-1.2-1.5-1.8-2.2c-0.7,0.7-1.9,1.2-2,2C303.2,454.1,304.2,455,305.2,456.5z" class="st1"/><path d="M272.2,419.2c0-9.8,7.9-17.7,17.8-17.6c9.7,0.1,17.4,7.8,17.4,17.5c0,9.9-7.8,17.8-17.6,17.8 C280,436.9,272.2,429,272.2,419.2z" class="st0"/><path d="M319.4,438.3c0.2,1.1,0.8,2.5,0.4,2.9c-2.9,3.2-6,6.2-9.2,9.2c-0.4,0.3-1.5,0.3-1.9,0s-0.6-1.6-0.4-1.9 c3.2-3.3,6.4-6.5,9.7-9.7C318.1,438.6,318.4,438.6,319.4,438.3z" class="st0"/><path d="M305.2,456.5c-0.9-1.5-1.9-2.4-1.8-3.1c0.1-0.8,1.3-1.3,2-2c0.6,0.7,1.8,1.4,1.8,2.2 C307.3,454.3,306.2,455.1,305.2,456.5z" class="st0"/></g></svg>