<?xml version='1.0' encoding='iso-8859-1'?>
<!DOCTYPE svg PUBLIC '-//W3C//DTD SVG 1.1//EN' 'http://www.w3.org/Graphics/SVG/1.1/DTD/svg11.dtd'>
<svg version="1.1" xmlns="http://www.w3.org/2000/svg" viewBox="0 0 457.68 457.68" xmlns:xlink="http://www.w3.org/1999/xlink" enable-background="new 0 0 457.68 457.68">
  <path d="m439.48,167.086v-111.249c0-17.81-14.49-32.3-32.3-32.3h-374.88c-17.811,0-32.3,14.49-32.3,32.3v226.63c0,17.81 14.49,32.3 32.3,32.3h106.243l-12.162,13.09h-18.221c-4.142,0-7.5,3.358-7.5,7.5s3.358,7.5 7.5,7.5h104.361v72.334c0,10.449 8.501,18.951 18.951,18.951h80.627c10.449,0 18.951-8.501 18.951-18.951v-15.234h100.94c14.166,0 25.69-11.529 25.69-25.7v-182.59c0-11.563-7.674-21.364-18.2-24.581zm3.2,24.581v2.049h-172.49v-2.049c0-5.9 4.8-10.7 10.7-10.7h151.1c5.895,0.001 10.69,4.801 10.69,10.7zm-130.581,63.364h-41.909v-46.315h172.49v148.491h-111.63v-83.226c0-10.449-8.502-18.95-18.951-18.95zm3.951,28.809h-88.528v-9.858c0-2.178 1.772-3.951 3.951-3.951h80.627c2.178,0 3.951,1.772 3.951,3.951v9.858zm108.429-220.503v102.63h-143.59c-14.171,0-25.7,11.529-25.7,25.7v63.364h-23.718c-10.441,0-18.936,8.488-18.949,18.926h-197.523v-210.62h409.48zm-196.959,235.503h88.528v91.495h-88.528v-91.495zm-195.221-260.303h374.88c6.85,2.13163e-14 12.765,4.012 15.565,9.8h-406.011c2.801-5.788 8.716-9.8 15.566-9.8zm-16.025,250.421h196.247v10.81h-180.222c-7.243-0.001-13.452-4.48-16.025-10.81zm130.582,38.899l12.162-13.09h53.503v13.09h-65.665zm165.242,91.286h-80.627c-2.178,0-3.951-1.772-3.951-3.951v-9.857h88.528v9.857c0.001,2.178-1.772,3.951-3.95,3.951zm119.891-34.185h-100.94v-12.75h111.63v2.05c0,5.899-4.795,10.7-10.69,10.7z"/>
</svg>
