<svg xmlns="http://www.w3.org/2000/svg" viewBox="0 0 359.82 271.78"><defs><style>.cls-1{fill:#c0392b}</style></defs><title>Asset 1sync</title><g id="Layer_2" data-name="Layer 2"><g id="Layer_1-2" data-name="Layer 1"><path d="M180,176.22c-26.69,0-48.4,21.44-48.4,47.78s21.71,47.78,48.4,47.78,48.4-21.44,48.4-47.78S206.66,176.22,180,176.22Zm0,63.56c-9,0-16.4-7.08-16.4-15.78s7.36-15.78,16.4-15.78,16.4,7.08,16.4,15.78S189,239.78,180,239.78Z" class="cls-1"/><path d="M284.18,142.3a138.54,138.54,0,0,0-208.59-.16,16,16,0,0,0,24.18,21,106.52,106.52,0,0,1,160.22.13,16,16,0,1,0,24.19-20.94Z" class="cls-1"/><path d="M355.92,79.92a233.94,233.94,0,0,0-352-.19,16,16,0,0,0,24.16,21,201.93,201.93,0,0,1,303.65.17,16,16,0,0,0,24.19-21Z" class="cls-1"/></g></g></svg>