<svg xmlns="http://www.w3.org/2000/svg" xmlns:xlink="http://www.w3.org/1999/xlink" id="Layer_1" x="0" y="0" version="1.1" viewBox="0 0 595.3 841.9" style="enable-background:new 0 0 595.3 841.9" xml:space="preserve"><style type="text/css">.st0{fill:#fff}.st1{fill:#5e5e5e}</style><g><path d="M303.5,318.9c27,0,53.9,0,80.9,0c0,68.3,0,136.5,0,204.8c-58.1,0-116.3,0-174.4,0c0-68.3,0-136.5,0-204.8 c25.4,0,50.7,0,76.1,0c-2.9,1.1-5.9,2.2-8.8,3.3c-26.6,9.9-38.9,40.6-26.8,66.7c11.6,25,44.2,35.5,68.1,22 c25.5-14.5,33.3-46.8,17.1-70.4C327.8,328.9,316.5,322.7,303.5,318.9z M296.4,522.1L296.4,522.1c16.6,0,33.3,0.3,49.9-0.1 c21.8-0.5,35.1-13.9,34.8-35.7c-0.1-10.5-0.9-21.3-3.7-31.4c-2.5-8.9-6.9-17.9-12.5-25.2c-10.4-13.4-27.1-15.3-41.3-6.1 c-18.4,11.9-36.6,11.8-54.9-0.2c-12.9-8.5-25.9-7.8-37.5,2.6c-4.4,4-8,9.1-10.9,14.4c-7.4,13.6-8.7,28.7-9,43.8 c-0.5,24,12.7,37.5,36.8,37.8C264.2,522.3,280.3,522.1,296.4,522.1z" class="st0"/><path d="M303.5,318.9c12.9,3.8,24.3,10,32.1,21.5c16.2,23.7,8.4,56-17.1,70.4c-23.9,13.6-56.5,3-68.1-22 c-12.1-26.1,0.2-56.8,26.8-66.7c2.9-1.1,5.9-2.2,8.8-3.3C291.9,318.9,297.7,318.9,303.5,318.9z" class="st1"/><path d="M296.4,522.1c-16.1,0-32.2,0.2-48.3,0c-24.1-0.3-37.3-13.8-36.8-37.8c0.3-15.1,1.6-30.2,9-43.8 c2.9-5.2,6.5-10.4,10.9-14.4c11.5-10.4,24.5-11,37.5-2.6c18.3,12,36.5,12.1,54.9,0.2c14.2-9.2,30.9-7.3,41.3,6.1 c5.7,7.3,10.1,16.3,12.5,25.2c2.8,10,3.5,20.9,3.7,31.4c0.3,21.8-13,35.2-34.8,35.7C329.7,522.4,313,522.1,296.4,522.1L296.4,522.1 z" class="st1"/></g></svg>