<svg xmlns="http://www.w3.org/2000/svg" xmlns:svg="http://www.w3.org/2000/svg" id="Layer_1" width="180.31" height="40.587" x="0" y="0" version="1.1" viewBox="0 0 180.31 40.587" xml:space="preserve"><metadata id="metadata21"/><style id="style2" type="text/css">.st1{fill-rule:evenodd;clip-rule:evenodd;fill:#fff}</style><g id="g14" transform="matrix(0.25921461,0,0,0.25921461,23.251551,-10.809249)"><path id="path6" d="M 192.2,64.7 C 177,49.5 157,41.8 136.9,41.8 v 0 c -19.9,0 -40,7.6 -55.3,22.9 -30.5,30.5 -30.5,79.9 0,110.6 30.5,30.5 79.9,30.5 110.6,0 30.4,-30.5 30.4,-80.1 0,-110.6 z m -22.1,88.5 c -18.4,18.4 -48.1,18.4 -66.2,0 -18.4,-18.4 -18.4,-48.1 0,-66.2 18.4,-18.4 48.1,-18.4 66.2,0 18.2,18.2 18.2,47.8 0,66.2 z" class="st1" style="clip-rule:evenodd;fill:#fff;fill-rule:evenodd"/><path id="path8" d="M 356.3,64.7 C 341,49.5 321.1,41.9 301,41.9 c -19.9,0 -40,7.6 -55.3,22.9 -30.5,30.5 -30.5,79.9 0,110.6 30.5,30.5 79.9,30.5 110.6,0 30.4,-30.6 30.4,-80.2 0,-110.7 z m -22.1,88.5 c -18.4,18.4 -48.1,18.4 -66.2,0 -18.4,-18.4 -18.4,-48.1 0,-66.2 18.4,-18.4 48.1,-18.4 66.2,0 18.2,18.2 18.2,47.8 0,66.2 z" class="st1" style="clip-rule:evenodd;fill:#fff;fill-rule:evenodd"/><path id="path10" d="m -58.5,197.7 7.8,0.4 H 66.6 l -0.4,-7.8 C 65.2,177.4 56,168 43.1,167.2 l -7.8,-0.4 H -35 L 58.8,73 58.4,65.2 C 57.8,52.3 48.2,42.7 35.3,42.1 L 27.5,41.7 H -89.7 l 0.4,7.8 c 1,12.7 10.4,22.3 23.1,23.1 l 7.8,0.4 h 70.3 l -93.8,93.8 0.4,7.8 c 0.8,13 10.1,22.4 23,23.1 z" class="st1" style="clip-rule:evenodd;fill:#fff;fill-rule:evenodd"/><path id="path12" d="m 476.4,88.7 c 2.7,4.7 3.5,9.8 3.9,15.6 l 0.4,7.8 v 54.7 l 0.4,7.8 c 0.8,12.7 10.2,22.3 23.1,23.1 l 7.8,0.4 v -86 l 0.4,-7.8 c 0.4,-5.9 1.2,-11.1 3.9,-15.8 5.5,-9.4 15.4,-15.4 27,-15.4 11.6,0 21.7,6.3 27.2,15.6 2.7,4.7 3.5,10 3.7,15.6 l 0.4,7.8 v 54.7 l 0.4,7.8 c 0.8,12.9 10.2,22.3 23.1,23.1 l 7.8,0.4 v -86 -7.8 C 605.9,69.7 578,41.8 543.4,41.8 524.6,41.8 508,50 496.5,62.9 485,50 468.4,41.8 449.6,41.8 c -12.9,0 -25,3.9 -35,10.7 -6.1,-6.8 -19.7,-10.7 -27.5,-10.7 v 156.3 l 7.8,-0.4 c 13.1,-0.8 22.5,-10.2 23.1,-23.1 l 0.4,-7.8 v -54.7 l 0.4,-7.8 c 0.4,-5.9 1.2,-11.1 3.9,-15.6 5.5,-9.4 15.4,-15.6 27,-15.6 11.6,0 21.4,6.3 26.7,15.6 z" class="st1" style="clip-rule:evenodd;fill:#fff;fill-rule:evenodd"/></g></svg>