<?xml version="1.0" encoding="UTF-8" standalone="no"?>
<!-- Generator: Adobe Illustrator 23.0.1, SVG Export Plug-In . SVG Version: 6.00 Build 0)  -->

<svg
   xmlns:dc="http://purl.org/dc/elements/1.1/"
   xmlns:cc="http://creativecommons.org/ns#"
   xmlns:rdf="http://www.w3.org/1999/02/22-rdf-syntax-ns#"
   xmlns:svg="http://www.w3.org/2000/svg"
   xmlns="http://www.w3.org/2000/svg"
   xmlns:sodipodi="http://sodipodi.sourceforge.net/DTD/sodipodi-0.dtd"
   xmlns:inkscape="http://www.inkscape.org/namespaces/inkscape"
   version="1.1"
   id="Layer_1"
   x="0px"
   y="0px"
   viewBox="0 0 180.30968 40.586529"
   xml:space="preserve"
   sodipodi:docname="zoom.svg"
   inkscape:version="0.92.3 (2405546, 2018-03-11)"
   width="180.30968"
   height="40.586529"><metadata
   id="metadata21"><rdf:RDF><cc:Work
       rdf:about=""><dc:format>image/svg+xml</dc:format><dc:type
         rdf:resource="http://purl.org/dc/dcmitype/StillImage" /><dc:title></dc:title></cc:Work></rdf:RDF></metadata><defs
   id="defs19" /><sodipodi:namedview
   pagecolor="#ffffff"
   bordercolor="#666666"
   borderopacity="1"
   objecttolerance="10"
   gridtolerance="10"
   guidetolerance="10"
   inkscape:pageopacity="0"
   inkscape:pageshadow="2"
   inkscape:window-width="1600"
   inkscape:window-height="836"
   id="namedview17"
   showgrid="false"
   inkscape:zoom="0.67248062"
   inkscape:cx="90.054841"
   inkscape:cy="20.280764"
   inkscape:window-x="0"
   inkscape:window-y="27"
   inkscape:window-maximized="1"
   inkscape:current-layer="Layer_1"
   fit-margin-top="0"
   fit-margin-left="0"
   fit-margin-right="0"
   fit-margin-bottom="0" />
<style
   type="text/css"
   id="style2">
	.st0{fill:#2D8CFF;}
	.st1{fill-rule:evenodd;clip-rule:evenodd;fill:#FFFFFF;}
</style>

<g
   id="g14"
   transform="matrix(0.25921461,0,0,0.25921461,23.251551,-10.809249)">
	<path
   class="st1"
   d="M 192.2,64.7 C 177,49.5 157,41.8 136.9,41.8 v 0 c -19.9,0 -40,7.6 -55.3,22.9 -30.5,30.5 -30.5,79.9 0,110.6 30.5,30.5 79.9,30.5 110.6,0 30.4,-30.5 30.4,-80.1 0,-110.6 z m -22.1,88.5 c -18.4,18.4 -48.1,18.4 -66.2,0 -18.4,-18.4 -18.4,-48.1 0,-66.2 18.4,-18.4 48.1,-18.4 66.2,0 18.2,18.2 18.2,47.8 0,66.2 z"
   id="path6"
   inkscape:connector-curvature="0"
   style="clip-rule:evenodd;fill:#ffffff;fill-rule:evenodd" />
	<path
   class="st1"
   d="M 356.3,64.7 C 341,49.5 321.1,41.9 301,41.9 c -19.9,0 -40,7.6 -55.3,22.9 -30.5,30.5 -30.5,79.9 0,110.6 30.5,30.5 79.9,30.5 110.6,0 30.4,-30.6 30.4,-80.2 0,-110.7 z m -22.1,88.5 c -18.4,18.4 -48.1,18.4 -66.2,0 -18.4,-18.4 -18.4,-48.1 0,-66.2 18.4,-18.4 48.1,-18.4 66.2,0 18.2,18.2 18.2,47.8 0,66.2 z"
   id="path8"
   inkscape:connector-curvature="0"
   style="clip-rule:evenodd;fill:#ffffff;fill-rule:evenodd" />
	<path
   class="st1"
   d="m -58.5,197.7 7.8,0.4 H 66.6 l -0.4,-7.8 C 65.2,177.4 56,168 43.1,167.2 l -7.8,-0.4 H -35 L 58.8,73 58.4,65.2 C 57.8,52.3 48.2,42.7 35.3,42.1 L 27.5,41.7 H -89.7 l 0.4,7.8 c 1,12.7 10.4,22.3 23.1,23.1 l 7.8,0.4 h 70.3 l -93.8,93.8 0.4,7.8 c 0.8,13 10.1,22.4 23,23.1 z"
   id="path10"
   inkscape:connector-curvature="0"
   style="clip-rule:evenodd;fill:#ffffff;fill-rule:evenodd" />
	<path
   class="st1"
   d="m 476.4,88.7 c 2.7,4.7 3.5,9.8 3.9,15.6 l 0.4,7.8 v 54.7 l 0.4,7.8 c 0.8,12.7 10.2,22.3 23.1,23.1 l 7.8,0.4 v -86 l 0.4,-7.8 c 0.4,-5.9 1.2,-11.1 3.9,-15.8 5.5,-9.4 15.4,-15.4 27,-15.4 11.6,0 21.7,6.3 27.2,15.6 2.7,4.7 3.5,10 3.7,15.6 l 0.4,7.8 v 54.7 l 0.4,7.8 c 0.8,12.9 10.2,22.3 23.1,23.1 l 7.8,0.4 v -86 -7.8 C 605.9,69.7 578,41.8 543.4,41.8 524.6,41.8 508,50 496.5,62.9 485,50 468.4,41.8 449.6,41.8 c -12.9,0 -25,3.9 -35,10.7 -6.1,-6.8 -19.7,-10.7 -27.5,-10.7 v 156.3 l 7.8,-0.4 c 13.1,-0.8 22.5,-10.2 23.1,-23.1 l 0.4,-7.8 v -54.7 l 0.4,-7.8 c 0.4,-5.9 1.2,-11.1 3.9,-15.6 5.5,-9.4 15.4,-15.6 27,-15.6 11.6,0 21.4,6.3 26.7,15.6 z"
   id="path12"
   inkscape:connector-curvature="0"
   style="clip-rule:evenodd;fill:#ffffff;fill-rule:evenodd" />
</g>
</svg>